<svg width="306" height="267" viewBox="0 0 306 267" fill="none" xmlns="http://www.w3.org/2000/svg">
<g clip-path="url(#clip0_377_112)">
<mask id="mask0_377_112" style="mask-type:alpha" maskUnits="userSpaceOnUse" x="0" y="22" width="306" height="245">
<path d="M77.2702 91.07C95.4302 91.07 113.59 91.04 131.75 91.08C140.79 91.1 142.07 92.68 140.59 101.29C138.76 111.95 136.96 122.61 135.2 133.29C135 134.51 133.88 136.08 135.33 136.94C136.64 137.72 137.8 136.29 138.85 135.6C152.11 126.93 166.19 119.89 182.12 118.5C206.03 116.41 229.99 117.41 252.55 126.24C264.98 131.1 277.08 137.41 287.67 145.99C293.87 151.01 297.62 157.58 299.73 165.11C302.71 175.7 305.43 186.36 305.38 197.48C305.38 198.97 305.48 200.57 305.01 201.93C304.03 204.76 302.83 208 299.17 207.85C295.67 207.71 295.62 204.4 295.09 201.85C294.26 197.9 293.18 194.09 290.51 190.91C285.76 185.24 279.62 185.02 274.63 190.53C269.83 195.83 268.01 202.35 267.4 209.3C267.3 210.46 267.27 211.63 267.28 212.8C267.32 227.51 269.76 225.44 254.1 229.85C242.4 233.15 230.62 236.17 218.94 239.54C214.82 240.73 212.97 239.44 212.52 235.36C212.08 231.4 212.15 227.36 210.78 223.53C210.33 222.28 209.95 220.99 209.37 219.79C206.7 214.3 203.07 209.65 196.45 209.4C190.21 209.16 186.43 213.4 183.52 218.27C179.08 225.72 178.29 233.98 179.12 242.4C179.89 250.26 179.59 251.21 171.92 252.34C141.85 256.77 111.84 256.42 81.9902 250.49C74.8502 249.07 67.3502 247.75 64.0402 239.65C63.4102 238.1 61.8302 238.66 60.5002 238.68C53.2802 238.79 46.2602 237.53 39.4102 235.29C36.5402 234.35 34.5802 232.72 34.0702 229.41C27.4102 186.12 20.6502 142.85 13.9802 99.57C12.9402 92.83 14.3202 91.18 21.2902 91.14C39.9502 91.03 58.6102 91.1 77.2702 91.1V91.07ZM77.4102 122.96C77.4102 123.02 77.4102 123.08 77.4102 123.14C61.7502 123.14 46.0902 123.19 30.4302 123.1C27.1202 123.08 25.5302 123.74 26.1502 127.61C29.5302 148.65 32.7602 169.72 35.9602 190.78C36.4202 193.78 37.7702 195.12 40.8802 195.08C48.8802 194.97 56.8702 195.03 64.8702 195.04C66.8102 195.04 68.2602 194.5 69.4402 192.69C76.6902 181.56 87.2602 174.34 98.9602 168.81C103.35 166.73 106.92 164.15 109.89 160.48C113.37 156.2 117.16 152.22 121.57 148.89C124.15 146.94 125.36 144.38 125.83 141.29C126.48 137.01 127.09 132.72 128 128.5C128.87 124.46 127.88 122.81 123.38 122.88C108.06 123.1 92.7302 122.97 77.4002 122.97L77.4102 122.96ZM157.76 170.58C157.76 170.64 157.76 170.71 157.76 170.77C168.59 170.77 179.42 170.77 190.26 170.77C192.41 170.77 194.19 170.87 195.2 167.92C198.98 156.82 206.27 147.92 214.08 139.42C214.94 138.48 216.85 138.03 216.42 136.5C215.89 134.59 213.91 135.29 212.54 135.28C197.04 135.23 181.54 135.24 166.04 135.28C164.72 135.28 163.32 135.34 162.11 135.78C146.51 141.55 133.47 151.21 121.72 162.75C120.28 164.17 118.19 166.1 119.09 168.34C120.11 170.86 123.04 170.52 125.27 170.54C136.1 170.65 146.93 170.59 157.76 170.59V170.58ZM227.05 169.57C241.94 164.45 256.83 159.3 271.74 154.23C275.5 152.95 274.1 151.59 272.02 149.98C261.61 141.9 249.96 139.3 237.27 142.77C229.5 144.89 222.85 149.09 217.48 156.21C222.83 156.48 228.65 151.23 231.81 158.06C234.04 162.88 230.08 165.99 227.05 169.58V169.57ZM152.37 217.84C152.37 217.96 152.37 218.07 152.38 218.19C155.51 217.96 158.7 218.02 161.77 217.44C167.15 216.44 170.23 212.36 170.14 207.27C170.09 204.26 168.6 202.89 165.78 203.33C158.71 204.44 151.76 206.06 145.78 210.26C143.81 211.64 140.75 213.31 141.37 215.73C142.06 218.45 145.52 217.6 147.9 217.8C149.38 217.93 150.88 217.82 152.37 217.82V217.84ZM111.64 237.73C115.44 238.1 119.88 237.59 124.28 236.69C125.43 236.46 126.92 236.23 126.86 234.86C126.79 233.34 125.31 233.38 124.15 233.63C114.21 235.8 104.4 234.96 94.6402 232.47C93.5902 232.2 92.0302 231.87 91.6302 233.3C91.2002 234.83 92.8802 235.12 93.8402 235.45C99.3802 237.37 105.12 237.98 111.66 237.73H111.64ZM74.3802 215.94C76.8402 215.58 79.9502 216.02 80.4802 212.46C80.8002 210.34 74.9702 204.48 72.7502 204.84C69.2502 205.41 69.7602 208.54 69.4902 211.07C69.1102 214.69 70.6402 216.38 74.3802 215.94Z" fill="black"/>
<path d="M152.86 32.5C136.33 53.13 123.14 45.1485 123.38 44.9685C125.45 43.5185 119.68 45.63 122.61 48.06C125.15 50.17 150.798 34.2375 149.438 36.4275C142.098 59.8575 150.02 41.72 150 42.34C149.8 50.64 151.2 37.23 143.52 37.69C139.81 37.91 134.17 42.94 133.44 46.59C133.24 47.56 131.85 48.77 134.34 48.57C139.43 48.15 139.68 54.02 141.28 57.5C142.67 60.52 143.81 63.66 145.03 66.76C145.66 68.36 146.57 69.58 148.19 70.42C153.02 72.95 154.47 77.2701 152.86 83.41C151.58 88.2701 147.66 87.92 144.02 87.93C98.8802 87.98 53.7402 87.99 8.60017 88C4.60017 88 0.80017 87.91 0.20017 82.5C-0.61983 75.01 1.02017 71.38 6.70017 69.99C8.99017 69.43 10.0802 68.17 10.8602 66.21C12.3902 62.34 14.2102 58.56 15.4802 54.61C17.0502 49.7 20.1902 47.96 25.2202 48C44.0402 48.16 62.8602 48.06 81.6802 48.06C92.1702 48.06 102.68 48.54 113.16 48.13C119.86 47.86 120.56 45.62 122.61 42.34C124.37 39.52 125.56 38.03 127.6 35.4C129.93 32.38 130.6 26.68 130.49 25.3C129.9 18.05 122.99 26.26 130.49 25C108.86 58.7538 124.092 44.36 124.802 43.7C126.372 42.25 124.326 40.36 125.986 42.34C126.676 43.17 127.846 44.1 126.426 45.72C125.596 46.67 132.47 34.9875 131.75 36.4275L152.86 32.5Z" fill="black"/>
<path d="M210.3 239.8C210.02 246.7 209.11 253.45 205.56 259.52C200.94 267.43 193.13 267.64 187.97 260.1C181.47 250.58 181.3 228.61 187.66 218.81C192.42 211.47 200.35 211.37 205.04 218.76C209.1 225.16 210.04 232.42 210.29 239.8H210.3Z" fill="black"/>
<path d="M270.08 214.27C269.75 208.04 270.84 201.88 273.87 196.14C275.84 192.41 278.56 189.54 283.1 189.55C287.56 189.55 290.09 192.65 291.64 196.23C296.91 208.38 296.52 220.51 290.59 232.35C288.86 235.8 286.05 238.2 281.92 238.06C277.81 237.92 275.32 235.31 273.51 231.9C270.61 226.44 269.86 220.56 270.09 214.28L270.08 214.27Z" fill="black"/>
<path d="M94.0202 266.54C89.9602 266.35 86.6802 264.74 84.4902 261.23C83.5802 259.77 83.1902 258.17 84.1402 256.55C85.1402 254.84 86.8202 254.71 88.4902 254.94C91.9202 255.42 95.3302 256.04 98.7402 256.6C100.4 256.87 102.08 257.15 102.65 259.09C103.25 261.14 102.17 262.6 100.78 263.86C98.8802 265.58 96.6002 266.46 94.0202 266.55V266.54Z" fill="black"/>
<path d="M90.5702 147.9C91.5702 147.9 92.5702 147.9 93.5602 147.9C95.9602 147.92 98.3302 148.05 99.2902 150.83C100.21 153.49 98.7502 155.32 96.9202 156.9C86.9802 165.48 77.0302 174.03 67.0502 182.56C65.2802 184.08 63.2002 184.82 61.2002 183.06C59.3402 181.43 59.1602 179.25 60.3202 177.15C62.0002 174.09 63.8802 171.15 65.6502 168.14C67.2002 165.5 66.5502 164.25 63.3502 164.08C60.4002 163.92 56.4602 165.41 55.1702 161.28C53.9602 157.39 57.4402 155.38 59.6702 153.03C65.7302 146.64 71.8402 140.29 77.9402 133.93C78.6302 133.21 79.2802 132.43 80.0602 131.82C82.3602 130.03 84.7002 127.11 87.8302 129.47C90.7402 131.66 88.8602 134.61 87.7102 137.18C87.1702 138.39 86.5502 139.57 85.9602 140.76C82.4802 147.82 82.5902 147.99 90.5702 147.9Z" fill="black"/>
</mask>
<g mask="url(#mask0_377_112)">
<path d="M-4 49H314V272H-4V49Z" fill="#0540F2"/>
</g>
</g>
<path fill-rule="evenodd" clip-rule="evenodd" d="M144.764 19.9492C144.7 20.1797 144.644 20.4186 144.598 20.6658C144.392 21.0585 144.17 21.4443 143.934 21.8234C143.819 21.8832 143.745 21.9751 143.713 22.0991C143.598 22.1589 143.524 22.2507 143.492 22.3747C143.377 22.4345 143.303 22.5263 143.271 22.6503C142.812 23.1541 142.36 23.6687 141.916 24.1938C141.95 24.8656 142.291 25.3066 142.939 25.5168C143.126 25.6672 143.329 25.7039 143.547 25.627C143.83 25.5137 144.088 25.3574 144.321 25.1585C144.926 24.4453 145.571 23.7654 146.256 23.1189C146.637 22.8102 147.042 22.5437 147.473 22.3196C147.557 22.3236 147.612 22.2868 147.639 22.2093C148.789 21.8706 149.738 22.1646 150.486 23.0913C150.91 23.6068 151.076 24.1948 150.983 24.8553C150.762 25.5725 150.412 26.2156 149.933 26.7847C149.182 27.5333 148.472 28.3142 147.804 29.1275C147.898 29.3056 148 29.4802 148.109 29.6512C148.534 30.0576 148.977 30.4435 149.435 30.8088C149.533 30.9484 149.616 31.0954 149.684 31.2498C149.734 31.5404 149.752 31.8344 149.739 32.1318C149.688 32.1907 149.669 32.2641 149.684 32.3523C149.605 32.4634 149.569 32.592 149.574 32.7382C149.432 33.0034 149.303 33.279 149.187 33.565C149.066 33.7312 148.974 33.915 148.91 34.1163C147.851 36.0729 146.321 37.5429 144.321 38.5263C144.095 38.5749 143.892 38.6668 143.713 38.8019C143.513 38.8472 143.328 38.9206 143.16 39.0224C142.779 39.1306 142.411 39.2592 142.055 39.4083C141.893 39.4119 141.745 39.4486 141.612 39.5185C140.655 39.5649 139.697 39.5832 138.737 39.5736C138.583 39.5198 138.417 39.5014 138.24 39.5185C137.819 39.4061 137.395 39.3878 136.968 39.4634C136.849 39.4563 136.739 39.4839 136.637 39.5461C136.001 40.2168 135.365 40.8874 134.729 41.5581C134.651 41.6632 134.586 41.7734 134.536 41.8889C134.458 41.915 134.421 41.9701 134.425 42.0543C134.348 42.1314 134.293 42.2233 134.259 42.3299C134.181 42.356 134.145 42.4111 134.149 42.4953C133.845 42.8799 133.569 43.2842 133.319 43.708C133.242 43.7341 133.205 43.7892 133.209 43.8734C133.131 43.8995 133.094 43.9546 133.098 44.0388C133.02 44.0648 132.984 44.12 132.988 44.2041C132.868 44.3321 132.776 44.4792 132.711 44.6451C132.633 44.6712 132.597 44.7263 132.601 44.8105C132.523 44.8366 132.486 44.8917 132.49 44.9759C132.412 45.002 132.375 45.0571 132.379 45.1413C131.86 45.7917 131.38 46.4716 130.942 47.1809C130.864 47.207 130.827 47.2621 130.831 47.3463C130.755 47.4234 130.699 47.5153 130.666 47.6219C130.569 47.6858 130.513 47.7777 130.5 47.8975C130.286 48.2495 130.102 48.617 129.947 49C126.298 49 122.649 49 119 49C119.293 48.7536 119.56 48.478 119.802 48.1731C121.817 45.3922 123.789 42.5809 125.717 39.739C126.998 38.0761 128.214 36.3672 129.366 34.6124C129.411 34.5057 129.439 34.3954 129.449 34.2817C129.518 33.9437 129.555 33.5946 129.56 33.2343C129.56 33.1608 129.56 33.0873 129.56 33.0138C129.597 32.8402 129.615 32.6565 129.615 32.4625C129.62 32.1372 129.584 31.8249 129.505 31.5254C129.495 31.2203 129.458 30.9264 129.394 30.6434C129.313 29.2829 129.323 27.9232 129.422 26.5642C129.466 25.8023 129.622 25.0673 129.892 24.3592C129.969 24.3331 130.006 24.278 130.002 24.1938C129.993 24.1391 130.011 24.1024 130.057 24.0835C130.135 24.0575 130.172 24.0023 130.168 23.9182C130.158 23.8635 130.177 23.8268 130.223 23.8079C130.301 23.7819 130.338 23.7267 130.334 23.6425C130.44 23.4352 130.559 23.233 130.693 23.0362C131.751 21.6409 132.995 20.4465 134.425 19.4531C134.509 19.4571 134.565 19.4203 134.591 19.3428C134.841 19.2447 135.099 19.2172 135.365 19.2601C135.949 19.6688 136.539 20.0639 137.134 20.4453C137.296 20.5991 137.462 20.6175 137.632 20.5004C137.972 20.337 138.276 20.1165 138.544 19.8389C138.93 19.3162 139.345 18.8201 139.788 18.3506C140.005 18.2257 140.19 18.0603 140.341 17.8544C140.789 17.3829 141.342 17.0981 141.999 17C143.934 17.0279 144.856 18.011 144.764 19.9492Z" fill="#0540F2"/>
<defs>
<clipPath id="clip0_377_112">
<rect width="305.4" height="266.54" fill="white"/>
</clipPath>
</defs>
</svg>