<?xml version="1.0" encoding="UTF-8"?>
<!DOCTYPE svg PUBLIC "-//W3C//DTD SVG 1.1//EN" "http://www.w3.org/Graphics/SVG/1.1/DTD/svg11.dtd">
<svg xmlns="http://www.w3.org/2000/svg" version="1.1" width="512px" height="512px" style="shape-rendering:geometricPrecision; text-rendering:geometricPrecision; image-rendering:optimizeQuality; fill-rule:evenodd; clip-rule:evenodd" xmlns:xlink="http://www.w3.org/1999/xlink">
<g><path style="opacity:0.964" fill="#000000" d="M 233.5,15.5 C 336.655,10.9799 414.488,52.6466 467,140.5C 495.027,194.023 502.693,250.356 490,309.5C 480.788,348.427 463.288,382.927 437.5,413C 455.625,432.126 474.125,450.959 493,469.5C 497.805,478.157 496.638,485.99 489.5,493C 482.833,496.333 476.167,496.333 469.5,493C 450.959,474.125 432.126,455.625 413,437.5C 348.402,490.36 275.235,507.194 193.5,488C 102.777,460.611 45.2773,401.111 21,309.5C 4.39658,225.351 24.7299,151.684 82,88.5C 123.819,46.3418 174.319,22.0085 233.5,15.5 Z M 254.5,47.5 C 333.413,50.352 393.579,85.0187 435,151.5C 467.221,210.934 471.221,272.267 447,335.5C 408.854,416.078 345.021,458.745 255.5,463.5C 165.979,458.745 102.146,416.078 64,335.5C 35.7782,260.39 45.4448,190.724 93,126.5C 134.86,75.988 188.693,49.6546 254.5,47.5 Z"/></g>
<g><path style="opacity:0.969" fill="#000000" d="M 183.5,175.5 C 211.978,173.811 225.145,187.144 223,215.5C 216.395,234.066 203.228,241.899 183.5,239C 164.934,232.395 157.101,219.228 160,199.5C 163.349,186.985 171.182,178.985 183.5,175.5 Z"/></g>
<g><path style="opacity:0.969" fill="#000000" d="M 311.5,175.5 C 339.978,173.811 353.145,187.144 351,215.5C 344.395,234.066 331.228,241.899 311.5,239C 292.934,232.395 285.101,219.228 288,199.5C 291.349,186.985 299.182,178.985 311.5,175.5 Z"/></g>
<g><path style="opacity:0.959" fill="#000000" d="M 241.5,255.5 C 290.104,251.704 324.604,271.704 345,315.5C 344.962,332.189 336.796,338.356 320.5,334C 319.421,333.044 318.255,332.211 317,331.5C 300.986,296.576 274.152,283.076 236.5,291C 216.51,298.322 202.343,311.822 194,331.5C 186.288,337.851 178.455,338.017 170.5,332C 166.355,327.23 164.855,321.73 166,315.5C 180.718,282.275 205.885,262.275 241.5,255.5 Z"/></g>
</svg>
